<svg width="60" height="60" viewBox="0 0 60 60" fill="none" xmlns="http://www.w3.org/2000/svg">
<g clip-path="url(#clip0_3827_98)">
<path d="M20.8305 14.0884C20.6582 14.6189 20.8278 15.1875 21.2626 15.5371L25.1339 18.6486L23.8309 23.4415C23.6846 23.9796 23.8816 24.5393 24.3332 24.8677C24.7848 25.1953 25.3777 25.2097 25.8444 24.9043L30 22.1841L34.1557 24.9045C34.3798 25.0511 34.6328 25.1239 34.8853 25.1239C35.1591 25.1239 35.4322 25.0383 35.6667 24.8677C36.1185 24.5396 36.3156 23.9796 36.169 23.4415L34.866 18.6487L38.737 15.5373C39.1721 15.1879 39.3418 14.6191 39.1693 14.0884C38.9969 13.5575 38.5254 13.1972 37.9682 13.1702L33.0073 12.9284L31.2443 8.28516C31.0464 7.76355 30.5578 7.42641 29.9999 7.42641C29.4419 7.42641 28.9534 7.76344 28.7556 8.28504L26.9925 12.9285L22.0319 13.1702C21.4745 13.1972 21.0029 13.5575 20.8305 14.0884ZM27.4394 14.7838C27.9682 14.758 28.4312 14.4216 28.6188 13.9268L29.9998 10.2899L31.3807 13.9271C31.5687 14.4218 32.0318 14.758 32.5601 14.7838L36.4457 14.9733L33.4133 17.4104C33.0007 17.7422 32.824 18.2865 32.9628 18.797L33.9834 22.551L30.7284 20.4202C30.5071 20.2753 30.2534 20.2029 29.9996 20.2029C29.7459 20.2029 29.492 20.2754 29.2705 20.4203L26.0157 22.551L27.0363 18.7972C27.1753 18.2864 26.9985 17.742 26.5857 17.4104L23.5535 14.9734L27.4394 14.7838ZM29.0623 4.37789V0.9375C29.0623 0.419766 29.482 0 29.9998 0C30.5175 0 30.9373 0.419766 30.9373 0.9375V4.37789C30.9373 4.89563 30.5175 5.31539 29.9998 5.31539C29.482 5.31539 29.0623 4.89563 29.0623 4.37789ZM34.7715 9.93234C34.4251 9.54762 34.4562 8.95477 34.8409 8.60836L38.6747 5.15625C39.0595 4.80973 39.6523 4.84078 39.9988 5.22562C40.3452 5.61035 40.3141 6.2032 39.9294 6.54961L36.0955 10.0017C35.9163 10.1631 35.692 10.2425 35.4684 10.2425C35.2121 10.2425 34.9567 10.138 34.7715 9.93234ZM20.0007 5.22562C20.3471 4.84078 20.9399 4.80973 21.3248 5.15625L25.1587 8.60836C25.5435 8.95477 25.5745 9.54762 25.2281 9.93234C25.043 10.1379 24.7875 10.2425 24.5311 10.2425C24.3076 10.2425 24.0833 10.1631 23.904 10.0017L20.0701 6.54961C19.6853 6.2032 19.6543 5.61035 20.0007 5.22562ZM42.0272 15.5371L45.8985 18.6486L44.5955 23.4415C44.4492 23.9796 44.6462 24.5393 45.0977 24.8677C45.549 25.1953 46.142 25.2096 46.609 24.9043L50.7646 22.1841L54.9203 24.9045C55.1443 25.0511 55.3973 25.1239 55.6499 25.1239C55.9236 25.1239 56.1968 25.0383 56.4313 24.8677C56.8828 24.5399 57.0799 23.9801 56.9335 23.4415L55.6305 18.6487L59.5016 15.5373C59.9366 15.188 60.1063 14.6193 59.9338 14.0884C59.7614 13.5575 59.2898 13.1972 58.7327 13.1702L53.7718 12.9284L52.009 8.28516C51.8111 7.76355 51.3225 7.42641 50.7646 7.42641C50.2065 7.42641 49.718 7.76344 49.52 8.28504L47.7572 12.9284L42.7966 13.1701C42.2391 13.1971 41.7675 13.5575 41.5951 14.0884C41.4226 14.6191 41.5923 15.1878 42.0272 15.5371ZM48.2039 14.7838C48.7328 14.758 49.1959 14.4216 49.3836 13.9267L50.7644 10.2898L52.1451 13.9266C52.333 14.4216 52.7961 14.758 53.3248 14.7837L57.2103 14.9732L54.1784 17.4101C53.7655 17.7417 53.5885 18.2862 53.7275 18.7969L54.7481 22.5509L51.4931 20.42C51.2716 20.2752 51.0179 20.2028 50.7642 20.2028C50.5104 20.2028 50.2566 20.2753 50.0352 20.4202L46.7804 22.5509L47.801 18.7971C47.9399 18.2865 47.7632 17.7422 47.3504 17.4103L44.3182 14.9732L48.2039 14.7838ZM0.497808 15.5371L4.3691 18.6486L3.06609 23.4415C2.91984 23.9796 3.11683 24.5393 3.56836 24.8677C4.02 25.1953 4.61285 25.2097 5.07961 24.9043L9.23519 22.1841L13.3909 24.9045C13.615 25.0511 13.868 25.1239 14.1205 25.1239C14.3943 25.1239 14.6674 25.0383 14.9019 24.8677C15.3534 24.5399 15.5505 23.9801 15.4042 23.4415L14.1012 18.6487L17.9722 15.5373C18.407 15.1882 18.5768 14.6196 18.4044 14.0878C18.2317 13.5573 17.7601 13.1971 17.2034 13.1701L12.2425 12.9282L10.4796 8.28516C10.2817 7.76355 9.79312 7.42641 9.23519 7.42641C8.67714 7.42641 8.18859 7.76344 7.99066 8.28504L6.22781 12.9284L1.26726 13.1701C0.709801 13.1971 0.238238 13.5575 0.0659724 14.0878C-0.106879 14.6188 0.0626912 15.1877 0.497808 15.5371ZM6.67453 14.7838C7.20339 14.758 7.66652 14.4216 7.85425 13.9267L9.23507 10.2898L10.6158 13.9266C10.8036 14.4216 11.2668 14.758 11.7954 14.7837L15.681 14.9732L12.649 17.4101C12.2361 17.7417 12.0592 18.2862 12.1982 18.7969L13.2187 22.5509L9.96375 20.42C9.74226 20.2752 9.48855 20.2028 9.23484 20.2028C8.98101 20.2028 8.72718 20.2753 8.50582 20.4202L5.25105 22.5509L6.27164 18.7971C6.4105 18.2865 6.23378 17.7422 5.82105 17.4103L2.78882 14.9732L6.67453 14.7838ZM59.8522 49.7968C59.1926 47.6666 57.8415 45.7539 56.0477 44.4107C55.189 43.7677 54.2538 43.2668 53.2673 42.9122C54.635 41.8387 55.5163 40.1723 55.5163 38.3028C55.5163 35.0725 52.8881 32.4444 49.6578 32.4444C46.4275 32.4444 43.7993 35.0725 43.7993 38.3028C43.7993 40.1701 44.6784 41.8349 46.0434 42.9084C44.214 43.5614 42.5933 44.7087 41.3522 46.2546C40.7721 45.4431 40.103 44.6893 39.3507 44.0091C37.835 42.6383 36.0562 41.6317 34.1406 41.0367C36.172 39.69 37.515 37.3841 37.515 34.7695C37.515 30.6258 34.1436 27.2545 29.9999 27.2545C25.8561 27.2545 22.4848 30.6258 22.4848 34.7695C22.4848 37.3841 23.8276 39.69 25.8591 41.0367C23.9433 41.6316 22.1645 42.6383 20.6488 44.0091C19.8966 44.6893 19.2274 45.4431 18.6475 46.2545C17.4064 44.7084 15.7857 43.5612 13.9562 42.9081C15.3211 41.8345 16.2003 40.1698 16.2003 38.3025C16.2003 35.0721 13.5722 32.4441 10.3419 32.4441C7.11152 32.4441 4.48336 35.0721 4.48336 38.3025C4.48336 40.1719 5.36461 41.8384 6.73218 42.9118C5.7457 43.2664 4.81054 43.7673 3.95168 44.4103C2.15789 45.7534 0.806832 47.6662 0.147183 49.7964C-0.157621 50.7803 0.0112459 51.7788 0.622613 52.6083C1.23386 53.4375 2.13785 53.8941 3.16793 53.8941H16.128V55.586C16.128 58.02 18.1082 60.0001 20.5421 60.0001H39.4574C41.8912 60.0001 43.8715 58.02 43.8716 55.586V53.8945H56.8316C57.8618 53.8945 58.7658 53.4379 59.3769 52.6087C59.9882 51.7793 60.157 50.7806 59.8522 49.7968ZM49.6578 34.3194C51.8543 34.3194 53.6413 36.1064 53.6413 38.3028C53.6413 40.4994 51.8543 42.2864 49.6578 42.2864C47.4613 42.2864 45.6743 40.4994 45.6743 38.3028C45.6743 36.1064 47.4613 34.3194 49.6578 34.3194ZM24.3598 34.7695C24.3598 31.6596 26.89 29.1295 29.9999 29.1295C33.1098 29.1295 35.64 31.6596 35.64 34.7695C35.64 37.8785 33.1114 40.4079 30.0029 40.4095C30.0019 40.4095 30.0007 40.4095 29.9998 40.4095C29.9988 40.4095 29.9978 40.4095 29.9967 40.4095C26.8882 40.4078 24.3598 37.8784 24.3598 34.7695ZM10.3419 34.3189C12.5384 34.3189 14.3253 36.1059 14.3253 38.3024C14.3253 40.4989 12.5384 42.2859 10.3419 42.2859C8.14535 42.2859 6.35836 40.4989 6.35836 38.3024C6.35836 36.1059 8.14535 34.3189 10.3419 34.3189ZM16.2498 52.0189H3.16804C2.73656 52.0189 2.38804 51.8429 2.13199 51.4956C1.87582 51.1482 1.81078 50.7632 1.93839 50.351C3.08496 46.6485 6.46218 44.1609 10.3419 44.1609C13.2766 44.1609 15.95 45.5789 17.5943 47.9793C16.9443 49.2421 16.489 50.6032 16.2498 52.0189ZM41.9966 55.5859C41.9965 56.9859 40.8574 58.125 39.4574 58.125H20.5421C19.1421 58.125 18.003 56.9859 18.003 55.5859V53.0074C18.6818 46.8916 23.8291 42.2861 29.9967 42.2845C29.9978 42.2845 29.9988 42.2846 29.9999 42.2846C30.0009 42.2846 30.002 42.2845 30.0029 42.2845C36.1704 42.2862 41.3176 46.8916 41.9966 53.0074V55.5859ZM57.8676 51.4962C57.6116 51.8434 57.2632 52.0194 56.8316 52.0194H43.75C43.5107 50.6035 43.0554 49.2424 42.4055 47.9795C44.0498 45.5793 46.7231 44.1614 49.6577 44.1614C53.5375 44.1614 56.9147 46.6491 58.0612 50.3516C58.1889 50.7635 58.1237 51.1486 57.8676 51.4962Z" fill="url(#paint0_linear_3827_98)"/>
</g>
<defs>
<linearGradient id="paint0_linear_3827_98" x1="1.5374" y1="1.09624e-07" x2="59.1481" y2="2.45243" gradientUnits="userSpaceOnUse">
<stop stop-color="#8E1AB4"/>
<stop offset="1" stop-color="#9B006D"/>
</linearGradient>
<clipPath id="clip0_3827_98">
<rect width="60" height="60" fill="white"/>
</clipPath>
</defs>
</svg>
