<svg width="60" height="60" viewBox="0 0 60 60" fill="none" xmlns="http://www.w3.org/2000/svg">
<path d="M56.1772 15.9471C56.1772 15.3212 55.8405 14.7381 55.2983 14.4249L30.5859 0.157061C30.2233 -0.0523535 29.7766 -0.0523535 29.414 0.157061L4.40869 14.594C4.04611 14.8033 3.82275 15.1902 3.82275 15.6088V44.4825C3.82275 44.9011 4.04611 45.2881 4.40869 45.4974L29.1208 59.7649C29.3919 59.9216 29.696 59.9999 30.0001 59.9999C30.304 59.9999 30.6079 59.9216 30.8789 59.7651L55.2981 45.6666C55.8403 45.3537 56.1772 44.7703 56.1772 44.1442V32.1753C56.1772 31.528 55.6524 31.0034 55.0053 31.0034C54.3582 31.0034 53.8335 31.5282 53.8335 32.1753V35.6294L43.6715 41.225C43.0459 40.6431 42.2082 40.2863 41.2885 40.2863C39.3569 40.2863 37.7856 41.8576 37.7856 43.7892C37.7856 45.7208 39.3569 47.2922 41.2885 47.2922C43.2201 47.2922 44.7915 45.7208 44.7915 43.7892C44.7915 43.6241 44.7792 43.4619 44.7569 43.3029L53.8335 38.305V43.806L31.0937 56.9349V42.2942L40.0179 37.6615C40.7953 37.2578 41.2782 36.4629 41.2782 35.5871L41.2747 32.1372L44.0383 30.7027C44.6615 31.2723 45.4905 31.6204 46.3993 31.6204C48.3309 31.6204 49.9023 30.049 49.9023 28.1174C49.9023 26.1858 48.3309 24.6144 46.3993 24.6144C44.4677 24.6144 42.8963 26.1858 42.8963 28.1174C42.8963 28.2932 42.9097 28.4658 42.9348 28.6347L40.1949 30.0569C39.4174 30.4603 38.9344 31.2553 38.9344 32.1314L38.9378 35.5814L31.0936 39.6535V38.6289C31.0936 38.6275 31.0936 38.6261 31.0936 38.6246V29.341L53.8333 17.5376V21.497C53.8333 22.1442 54.3581 22.6689 55.0052 22.6689C55.6523 22.6689 56.1771 22.1441 56.1771 21.497V15.9471H56.1772ZM41.2885 44.9485C40.6494 44.9485 40.1293 44.4284 40.1293 43.7892C40.1293 43.1501 40.6494 42.63 41.2885 42.63C41.9277 42.63 42.4478 43.1501 42.4478 43.7892C42.4478 44.4285 41.9277 44.9485 41.2885 44.9485ZM46.3994 26.9582C47.0386 26.9582 47.5587 27.4783 47.5587 28.1174C47.5587 28.7566 47.0386 29.2766 46.3994 29.2766C45.7603 29.2766 45.2402 28.7566 45.2402 28.1174C45.2402 27.4783 45.7603 26.9582 46.3994 26.9582ZM30 2.52519L52.5669 15.5542L45.5544 19.1942C45.5003 19.1485 45.4418 19.1065 45.3779 19.0702L36.7603 14.171C36.7994 13.9616 36.8209 13.7461 36.8209 13.5256C36.8209 11.594 35.2495 10.0226 33.3179 10.0226C31.3863 10.0226 29.8149 11.594 29.8149 13.5256C29.8149 15.4572 31.3863 17.0285 33.3179 17.0285C34.1799 17.0285 34.9698 16.715 35.5807 16.1966L43.097 20.4696L29.9232 27.3076L7.42744 15.5575L13.1024 12.281L18.1243 14.9042C18.1149 15.0083 18.1094 15.1135 18.1094 15.22C18.1094 17.1516 19.6808 18.723 21.6124 18.723C23.544 18.723 25.1154 17.1516 25.1154 15.22C25.1154 13.2884 23.544 11.717 21.6124 11.717C20.6319 11.717 19.7447 12.1225 19.1082 12.7738L15.5068 10.8927L30 2.52519ZM34.4771 13.5256C34.4771 14.1647 33.957 14.6848 33.3179 14.6848C32.6788 14.6848 32.1587 14.1647 32.1587 13.5256C32.1587 12.8864 32.6788 12.3664 33.3179 12.3664C33.957 12.3664 34.4771 12.8864 34.4771 13.5256ZM21.6123 14.0608C22.2514 14.0608 22.7715 14.5808 22.7715 15.22C22.7715 15.8591 22.2514 16.3792 21.6123 16.3792C20.9731 16.3792 20.4531 15.8591 20.4531 15.22C20.4531 14.5808 20.9731 14.0608 21.6123 14.0608ZM6.1665 38.6696L17.3524 44.5122C17.3366 44.6468 17.3276 44.7836 17.3276 44.9225C17.3276 46.8541 18.8989 48.4254 20.8305 48.4254C22.7621 48.4254 24.3335 46.8541 24.3335 44.9225C24.3335 42.9908 22.7621 41.4195 20.8305 41.4195C19.8833 41.4195 19.0231 41.798 18.392 42.4111L6.1665 36.0255V17.543L28.7499 29.3387V36.7097L16.4137 30.2663C16.4305 30.1278 16.4401 29.987 16.4401 29.8441C16.4401 27.9125 14.8687 26.3411 12.9371 26.3411C11.0055 26.3411 9.43416 27.9125 9.43416 29.8441C9.43416 31.7757 11.0055 33.347 12.9371 33.347C13.8801 33.347 14.7367 32.9718 15.367 32.3637L28.7499 39.3539V56.8445L6.1665 43.806V38.6696ZM20.8305 43.7633C21.4697 43.7633 21.9897 44.2834 21.9897 44.9226C21.9897 45.5617 21.4697 46.0818 20.8305 46.0818C20.1914 46.0818 19.6713 45.5617 19.6713 44.9226C19.6713 44.2834 20.1914 43.7633 20.8305 43.7633ZM14.0963 29.8442C14.0963 30.4833 13.5763 31.0034 12.9371 31.0034C12.298 31.0034 11.7779 30.4833 11.7779 29.8442C11.7779 29.205 12.298 28.6849 12.9371 28.6849C13.5763 28.6849 14.0963 29.205 14.0963 29.8442Z" fill="url(#paint0_linear_3909_431)"/>
<path d="M54.9248 28.0176C55.572 28.0176 56.0967 27.4929 56.0967 26.8457C56.0967 26.1985 55.572 25.6738 54.9248 25.6738C54.2776 25.6738 53.7529 26.1985 53.7529 26.8457C53.7529 27.4929 54.2776 28.0176 54.9248 28.0176Z" fill="url(#paint1_linear_3909_431)"/>
<defs>
<linearGradient id="paint0_linear_3909_431" x1="5.16507" y1="1.09624e-07" x2="55.4552" y2="1.86798" gradientUnits="userSpaceOnUse">
<stop stop-color="#8E1AB4"/>
<stop offset="1" stop-color="#9B006D"/>
</linearGradient>
<linearGradient id="paint1_linear_3909_431" x1="53.813" y1="25.6738" x2="56.0634" y2="25.7696" gradientUnits="userSpaceOnUse">
<stop stop-color="#8E1AB4"/>
<stop offset="1" stop-color="#9B006D"/>
</linearGradient>
</defs>
</svg>
