<svg width="60" height="60" viewBox="0 0 60 60" fill="none" xmlns="http://www.w3.org/2000/svg">
<path d="M48.0673 11.7423C47.8573 11.5336 47.5734 11.4165 47.2774 11.4165C46.9814 11.4165 46.6974 11.5336 46.4874 11.7423L31.3838 26.3866C31.1698 26.5946 31.0473 26.8791 31.0431 27.1775C31.0389 27.4758 31.1534 27.7637 31.3614 27.9776C31.5694 28.1916 31.8539 28.3141 32.1523 28.3183C32.4506 28.3225 32.7385 28.208 32.9524 28L48.0449 13.3222C48.2565 13.1152 48.3777 12.8329 48.3819 12.5369C48.3861 12.2408 48.273 11.9552 48.0673 11.7423Z" fill="url(#paint0_linear_3909_405)"/>
<path d="M56.2689 23.1925H54.5098C54.2099 23.1936 53.9174 23.0999 53.6739 22.9246C53.4304 22.7494 53.2485 22.5017 53.1541 22.2168C52.6392 20.6842 51.971 19.2075 51.1597 17.8093L58.0616 10.9794C59.0667 9.97219 59.6313 8.60679 59.6313 7.18318C59.6313 5.75956 59.0667 4.39417 58.0616 3.38691L56.2913 1.67103C55.2867 0.675622 53.929 0.119133 52.5154 0.123365C51.8126 0.122599 51.1167 0.262046 50.4684 0.533557C49.8201 0.805067 49.2323 1.20319 48.7395 1.70467L41.7927 8.56822C40.5112 7.86978 39.1731 7.28078 37.7927 6.80747C37.5093 6.71252 37.2632 6.52996 37.0901 6.28609C36.9169 6.04222 36.8255 5.74963 36.8291 5.45047V3.6785C36.8262 2.70187 36.4365 1.76626 35.7455 1.07673C35.0545 0.387193 34.1186 -4.51136e-06 33.1429 0H26.8571C25.8814 -4.51136e-06 24.9455 0.387193 24.2545 1.07673C23.5635 1.76626 23.1738 2.70187 23.1709 3.6785V5.43925C23.172 5.7394 23.0783 6.03222 22.9032 6.27592C22.7282 6.51961 22.4807 6.70173 22.1961 6.79626C21.1347 7.15839 20.098 7.5892 19.0924 8.08598C18.8255 8.21615 18.5247 8.26016 18.2317 8.21195C17.9387 8.16374 17.6679 8.02568 17.4566 7.81682L16.2241 6.57196C15.5296 5.88299 14.5913 5.49645 13.6134 5.49645C12.6356 5.49645 11.6973 5.88299 11.0028 6.57196L6.58824 10.9907C6.24472 11.3334 5.97216 11.7407 5.78619 12.1891C5.60022 12.6375 5.50449 13.1182 5.50449 13.6037C5.50449 14.0892 5.60022 14.57 5.78619 15.0184C5.97216 15.4668 6.24472 15.874 6.58824 16.2168L7.82073 17.4617C8.03363 17.6727 8.17514 17.9452 8.22538 18.2409C8.27562 18.5366 8.23207 18.8406 8.10084 19.1103C7.60149 20.1139 7.17463 21.1521 6.82353 22.2168C6.72554 22.5017 6.54115 22.7488 6.2961 22.9237C6.05105 23.0986 5.75756 23.1926 5.45658 23.1925H3.68627C2.70861 23.1925 1.771 23.5813 1.07968 24.2732C0.388374 24.9652 0 25.9037 0 26.8822V33.129C0 34.1075 0.388374 35.046 1.07968 35.738C1.771 36.4299 2.70861 36.8187 3.68627 36.8187H5.44538C5.74524 36.8176 6.03779 36.9113 6.28126 37.0866C6.52473 37.2618 6.70667 37.5095 6.80112 37.7944C7.16291 38.8567 7.59332 39.8945 8.08964 40.9009C8.22086 41.1706 8.26442 41.4746 8.21418 41.7703C8.16394 42.0659 8.02243 42.3385 7.80952 42.5495L6.57703 43.7944C6.22435 44.1322 5.94334 44.5377 5.75083 44.9867C5.55831 45.4356 5.45823 45.9189 5.45658 46.4075C5.46138 46.8955 5.56288 47.3778 5.75521 47.8264C5.94754 48.2749 6.22687 48.6808 6.57703 49.0205L10.9916 53.4392C11.6861 54.1282 12.6244 54.5147 13.6022 54.5147C14.5801 54.5147 15.5184 54.1282 16.2129 53.4392L17.4566 52.1944C17.6653 51.9818 17.9349 51.8396 18.228 51.7873C18.5212 51.7351 18.8233 51.7754 19.0924 51.9028C20.096 52.4007 21.1331 52.8279 22.1961 53.1813C22.4807 53.2794 22.7275 53.4639 22.9023 53.7092C23.077 53.9545 23.1709 54.2483 23.1709 54.5495V56.3103C23.1709 57.2888 23.5592 58.2273 24.2506 58.9193C24.9419 59.6112 25.8795 60 26.8571 60H33.1429C33.6279 60.0015 34.1084 59.9071 34.557 59.7223C35.0055 59.5376 35.4132 59.266 35.7567 58.9233C36.1002 58.5805 36.3727 58.1732 36.5587 57.7249C36.7446 57.2765 36.8403 56.7957 36.8403 56.3103V54.5607C36.8361 54.2601 36.927 53.9658 37.1001 53.72C37.2732 53.4742 37.5196 53.2896 37.8039 53.1925C38.8563 52.8355 39.8822 52.4045 40.874 51.9028C41.1416 51.7723 41.4435 51.7292 41.7369 51.7795C42.0304 51.8298 42.3007 51.971 42.5098 52.1832L43.7535 53.428C44.448 54.117 45.3863 54.5035 46.3641 54.5035C47.342 54.5035 48.2803 54.117 48.9748 53.428L53.3894 49.0093C54.0777 48.3141 54.4639 47.375 54.4639 46.3962C54.4639 45.4175 54.0777 44.4783 53.3894 43.7832L52.1905 42.5495C51.9776 42.3385 51.8361 42.0659 51.7858 41.7703C51.7356 41.4746 51.7791 41.1706 51.9104 40.9009C52.4133 39.8975 52.8439 38.8593 53.1989 37.7944C53.2933 37.5095 53.4753 37.2618 53.7187 37.0866C53.9622 36.9113 54.2548 36.8176 54.5546 36.8187H56.3137C57.2914 36.8187 58.229 36.4299 58.9203 35.738C59.6116 35.046 60 34.1075 60 33.129V26.8822C60 26.3939 59.9032 25.9104 59.7152 25.4598C59.5271 25.0092 59.2516 24.6004 58.9045 24.2572C58.5574 23.914 58.1458 23.6432 57.6933 23.4604C57.2409 23.2776 56.7568 23.1866 56.2689 23.1925ZM46.1849 24.7178C47.3025 28.1572 47.3028 31.8627 46.1856 35.3023C45.0684 38.7419 42.8912 41.7388 39.9666 43.8629C37.0419 45.987 33.5201 47.129 29.9067 47.1251C26.2932 47.1212 22.7739 45.9715 19.8539 43.8411C16.9338 41.7106 14.7632 38.709 13.6535 35.267C12.5438 31.8249 12.552 28.1195 13.6771 24.6824C14.8022 21.2454 16.9863 18.2535 19.9158 16.1362C22.8454 14.0188 26.3698 12.8849 29.9832 12.8972C32.1079 12.8953 34.2138 13.2948 36.1905 14.0748L22.7451 27.4206C22.5977 27.565 22.493 27.7474 22.4426 27.9477L19.8767 38.1757C19.8187 38.3715 19.8151 38.5794 19.8665 38.777C19.9178 38.9747 20.0221 39.1545 20.1681 39.2972C20.2718 39.4031 20.3956 39.4875 20.5321 39.5452C20.6687 39.603 20.8153 39.633 20.9636 39.6336C21.0529 39.6444 21.1432 39.6444 21.2325 39.6336L31.563 37.0878C31.7606 37.0458 31.9405 36.944 32.0784 36.7962L45.7031 23.3383C45.9049 23.789 46.0844 24.2494 46.2409 24.7178H46.1849ZM24.1008 30.3925L29.0532 35.2934L22.4762 36.9196L24.1008 30.3925ZM31.2605 34.329L25.0868 28.2168L47.3165 6.23551L53.4902 12.3477L31.2605 34.329ZM52.549 2.36635C53.3849 2.35806 54.1903 2.68051 54.7899 3.26355L56.5154 4.97944C57.0997 5.56597 57.4278 6.36048 57.4278 7.18878C57.4278 8.01709 57.0997 8.81159 56.5154 9.39813L55.126 10.7664L48.9076 4.6542L50.2857 3.28598C50.5746 2.99424 50.9185 2.76274 51.2973 2.60489C51.6762 2.44703 52.0826 2.36596 52.493 2.36635H52.549ZM57.7703 33.129C57.7703 33.5127 57.618 33.8806 57.347 34.152C57.0759 34.4233 56.7083 34.5757 56.3249 34.5757H54.5098C53.7469 34.5852 53.0058 34.8322 52.3894 35.2823C51.773 35.7325 51.3119 36.3635 51.07 37.0878C50.7571 38.0492 50.3829 38.9894 49.9496 39.9028C49.6113 40.5922 49.4964 41.3702 49.6209 42.1281C49.7455 42.886 50.1032 43.5861 50.6443 44.1308L51.8879 45.3757C52.0231 45.5101 52.1304 45.67 52.2036 45.8461C52.2768 46.0223 52.3145 46.2111 52.3145 46.4019C52.3145 46.5926 52.2768 46.7815 52.2036 46.9576C52.1304 47.1337 52.0231 47.2936 51.8879 47.428L47.3838 51.9028C47.2494 52.0381 47.0897 52.1455 46.9137 52.2187C46.7378 52.292 46.5491 52.3297 46.3585 52.3297C46.168 52.3297 45.9793 52.292 45.8033 52.2187C45.6274 52.1455 45.4677 52.0381 45.3333 51.9028L44.0896 50.6579C43.5547 50.1027 42.8581 49.731 42.0994 49.5961C41.3407 49.4611 40.5588 49.5698 39.8655 49.9065C38.9501 50.3422 38.0068 50.7168 37.042 51.028C36.3104 51.27 35.6744 51.7381 35.2255 52.3648C34.7765 52.9916 34.5377 53.7447 34.5434 54.5159V56.2766C34.5525 56.6596 34.4107 57.0307 34.1486 57.3098C33.8866 57.5889 33.5253 57.7536 33.1429 57.7682H26.8571C26.4738 57.7682 26.1062 57.6158 25.8351 57.3445C25.564 57.0732 25.4118 56.7052 25.4118 56.3215V54.5607C25.4158 53.79 25.1763 53.0376 24.7276 52.4112C24.2788 51.7848 23.6438 51.3164 22.9132 51.0729C21.9483 50.7617 21.0051 50.387 20.0896 49.9514C19.402 49.6077 18.6236 49.4899 17.8652 49.6148C17.1067 49.7396 16.407 50.1007 15.8655 50.6467L14.6218 51.9028C14.4875 52.0381 14.3278 52.1455 14.1518 52.2187C13.9759 52.292 13.7872 52.3297 13.5966 52.3297C13.4061 52.3297 13.2174 52.292 13.0414 52.2187C12.8655 52.1455 12.7058 52.0381 12.5714 51.9028L8.15686 47.4168C8.02046 47.2845 7.91237 47.1258 7.83918 46.9503C7.76598 46.7749 7.72921 46.5864 7.73109 46.3962C7.72963 46.2045 7.76655 46.0144 7.83967 45.8372C7.9128 45.66 8.02065 45.4993 8.15686 45.3645L9.40056 44.1196C9.94754 43.5786 10.3094 42.8781 10.4342 42.1186C10.5589 41.359 10.4403 40.5795 10.0952 39.8916C9.65998 38.9752 9.28568 38.0311 8.97479 37.0654C8.72853 36.336 8.2598 35.7022 7.63465 35.2536C7.0095 34.8049 6.25945 34.5639 5.4902 34.5645H3.68627C3.30294 34.5645 2.9353 34.4121 2.66424 34.1407C2.39318 33.8694 2.2409 33.5014 2.2409 33.1177V26.8822C2.2409 26.4985 2.39318 26.1306 2.66424 25.8592C2.9353 25.5879 3.30294 25.4355 3.68627 25.4355H5.44538C6.21544 25.4395 6.96707 25.1998 7.59288 24.7507C8.21869 24.3015 8.68668 23.6659 8.92997 22.9346C9.24083 21.9652 9.61512 21.0173 10.0504 20.0972C10.3946 19.411 10.5127 18.6333 10.3879 17.8757C10.2631 17.1182 9.90178 16.4196 9.35574 15.8804L8.15686 14.6355C7.88659 14.3625 7.73497 13.9937 7.73497 13.6093C7.73497 13.225 7.88659 12.8562 8.15686 12.5832L12.5714 8.16448C12.7058 8.02919 12.8655 7.92182 13.0414 7.84855C13.2174 7.77528 13.4061 7.73756 13.5966 7.73756C13.7872 7.73756 13.9759 7.77528 14.1518 7.84855C14.3278 7.92182 14.4875 8.02919 14.6218 8.16448L15.8655 9.40934C16.4079 9.95385 17.1076 10.3139 17.8656 10.4387C18.6236 10.5635 19.4016 10.4466 20.0896 10.1047C21.0051 9.66901 21.9483 9.29436 22.9132 8.98318C23.6429 8.73817 24.2769 8.26937 24.7254 7.6433C25.1739 7.01724 25.4141 6.2657 25.4118 5.49533V3.6785C25.4118 3.29481 25.564 2.92683 25.8351 2.65551C26.1062 2.3842 26.4738 2.23178 26.8571 2.23178H33.1429C33.5194 2.24337 33.8768 2.40055 34.1401 2.67031C34.4033 2.94007 34.5519 3.30142 34.5546 3.6785V5.43925C34.5506 6.21003 34.7901 6.96236 35.2388 7.58876C35.6875 8.21516 36.3226 8.68358 37.0532 8.9271C38.0911 9.2885 39.1021 9.72324 40.0784 10.228L37.9272 12.3477C35.4325 11.2142 32.7228 10.6328 29.9832 10.643C25.9152 10.6517 21.9542 11.9479 18.6668 14.3461C15.3793 16.7444 12.9338 20.1219 11.6801 23.9954C10.4263 27.869 10.4286 32.0402 11.6866 35.9124C12.9445 39.7846 15.3937 43.1594 18.6838 45.5541C21.9739 47.9487 25.9363 49.2406 30.0043 49.2448C34.0723 49.249 38.0374 47.9654 41.3324 45.5776C44.6275 43.1898 47.0837 39.8201 48.3497 35.9506C49.6157 32.081 49.6266 27.9098 48.3809 24.0336C48.0972 23.1891 47.7566 22.3647 47.3613 21.5664L49.4902 19.4579C50.1192 20.5674 50.6479 21.7309 51.07 22.9346C51.3163 23.664 51.785 24.2977 52.4102 24.7464C53.0353 25.1951 53.7854 25.4361 54.5546 25.4355H56.3137C56.6971 25.4355 57.0647 25.5879 57.3358 25.8592C57.6068 26.1306 57.7591 26.4985 57.7591 26.8822L57.7703 33.129Z" fill="url(#paint1_linear_3909_405)"/>
<defs>
<linearGradient id="paint0_linear_3909_405" x1="31.4875" y1="11.4165" x2="48.1342" y2="12.1434" gradientUnits="userSpaceOnUse">
<stop stop-color="#8E1AB4"/>
<stop offset="1" stop-color="#9B006D"/>
</linearGradient>
<linearGradient id="paint1_linear_3909_405" x1="1.53834" y1="1.09624e-07" x2="59.1477" y2="2.45233" gradientUnits="userSpaceOnUse">
<stop stop-color="#8E1AB4"/>
<stop offset="1" stop-color="#9B006D"/>
</linearGradient>
</defs>
</svg>
