<svg width="24" height="12" viewBox="0 0 24 12" fill="none" xmlns="http://www.w3.org/2000/svg">
<g clip-path="url(#clip0_3824_43)">
<path d="M23.3538 0L11.5154 11.8154H12.1615L24 0H23.3538Z" fill="url(#paint0_linear_3824_43)" stroke="url(#paint1_linear_3824_43)"/>
<path d="M23.3538 0L11.5154 11.8154H12.1615L24 0H23.3538Z" fill="url(#paint2_linear_3824_43)" stroke="url(#paint3_linear_3824_43)"/>
<path d="M19.523 0L7.70765 11.8154H8.3538L20.1923 0H19.523Z" fill="url(#paint4_linear_3824_43)" stroke="url(#paint5_linear_3824_43)"/>
<path d="M19.523 0L7.70765 11.8154H8.3538L20.1923 0H19.523Z" fill="url(#paint6_linear_3824_43)" stroke="url(#paint7_linear_3824_43)"/>
<path d="M15.7154 0L3.87696 11.8154H4.54619L16.3616 0H15.7154Z" fill="url(#paint8_linear_3824_43)" stroke="url(#paint9_linear_3824_43)"/>
<path d="M15.7154 0L3.87696 11.8154H4.54619L16.3616 0H15.7154Z" fill="url(#paint10_linear_3824_43)" stroke="url(#paint11_linear_3824_43)"/>
<path d="M11.8847 0L0.0692482 11.8154H0.715402L12.554 0H11.8847Z" fill="url(#paint12_linear_3824_43)" stroke="url(#paint13_linear_3824_43)"/>
<path d="M11.8847 0L0.0692482 11.8154H0.715402L12.554 0H11.8847Z" fill="url(#paint14_linear_3824_43)" stroke="url(#paint15_linear_3824_43)"/>
</g>
<defs>
<linearGradient id="paint0_linear_3824_43" x1="23.6799" y1="2.15875e-08" x2="11.6953" y2="0.539061" gradientUnits="userSpaceOnUse">
<stop stop-color="#8E1AB4"/>
<stop offset="1" stop-color="#9B006D"/>
</linearGradient>
<linearGradient id="paint1_linear_3824_43" x1="23.6799" y1="2.15875e-08" x2="11.6953" y2="0.539061" gradientUnits="userSpaceOnUse">
<stop stop-color="#8E1AB4"/>
<stop offset="1" stop-color="#9B006D"/>
</linearGradient>
<linearGradient id="paint2_linear_3824_43" x1="23.6799" y1="2.15875e-08" x2="11.6953" y2="0.539061" gradientUnits="userSpaceOnUse">
<stop stop-color="#8E1AB4"/>
<stop offset="1" stop-color="#9B006D"/>
</linearGradient>
<linearGradient id="paint3_linear_3824_43" x1="23.6799" y1="2.15875e-08" x2="11.6953" y2="0.539061" gradientUnits="userSpaceOnUse">
<stop stop-color="#8E1AB4"/>
<stop offset="1" stop-color="#9B006D"/>
</linearGradient>
<linearGradient id="paint4_linear_3824_43" x1="19.8722" y1="2.15875e-08" x2="7.88752" y2="0.539061" gradientUnits="userSpaceOnUse">
<stop stop-color="#8E1AB4"/>
<stop offset="1" stop-color="#9B006D"/>
</linearGradient>
<linearGradient id="paint5_linear_3824_43" x1="19.8722" y1="2.15875e-08" x2="7.88752" y2="0.539061" gradientUnits="userSpaceOnUse">
<stop stop-color="#8E1AB4"/>
<stop offset="1" stop-color="#9B006D"/>
</linearGradient>
<linearGradient id="paint6_linear_3824_43" x1="19.8722" y1="2.15875e-08" x2="7.88752" y2="0.539061" gradientUnits="userSpaceOnUse">
<stop stop-color="#8E1AB4"/>
<stop offset="1" stop-color="#9B006D"/>
</linearGradient>
<linearGradient id="paint7_linear_3824_43" x1="19.8722" y1="2.15875e-08" x2="7.88752" y2="0.539061" gradientUnits="userSpaceOnUse">
<stop stop-color="#8E1AB4"/>
<stop offset="1" stop-color="#9B006D"/>
</linearGradient>
<linearGradient id="paint8_linear_3824_43" x1="16.0415" y1="2.15875e-08" x2="4.05683" y2="0.539061" gradientUnits="userSpaceOnUse">
<stop stop-color="#8E1AB4"/>
<stop offset="1" stop-color="#9B006D"/>
</linearGradient>
<linearGradient id="paint9_linear_3824_43" x1="16.0415" y1="2.15875e-08" x2="4.05683" y2="0.539061" gradientUnits="userSpaceOnUse">
<stop stop-color="#8E1AB4"/>
<stop offset="1" stop-color="#9B006D"/>
</linearGradient>
<linearGradient id="paint10_linear_3824_43" x1="16.0415" y1="2.15875e-08" x2="4.05683" y2="0.539061" gradientUnits="userSpaceOnUse">
<stop stop-color="#8E1AB4"/>
<stop offset="1" stop-color="#9B006D"/>
</linearGradient>
<linearGradient id="paint11_linear_3824_43" x1="16.0415" y1="2.15875e-08" x2="4.05683" y2="0.539061" gradientUnits="userSpaceOnUse">
<stop stop-color="#8E1AB4"/>
<stop offset="1" stop-color="#9B006D"/>
</linearGradient>
<linearGradient id="paint12_linear_3824_43" x1="12.2339" y1="2.15875e-08" x2="0.24912" y2="0.539069" gradientUnits="userSpaceOnUse">
<stop stop-color="#8E1AB4"/>
<stop offset="1" stop-color="#9B006D"/>
</linearGradient>
<linearGradient id="paint13_linear_3824_43" x1="12.2339" y1="2.15875e-08" x2="0.24912" y2="0.539069" gradientUnits="userSpaceOnUse">
<stop stop-color="#8E1AB4"/>
<stop offset="1" stop-color="#9B006D"/>
</linearGradient>
<linearGradient id="paint14_linear_3824_43" x1="12.2339" y1="2.15875e-08" x2="0.24912" y2="0.539069" gradientUnits="userSpaceOnUse">
<stop stop-color="#8E1AB4"/>
<stop offset="1" stop-color="#9B006D"/>
</linearGradient>
<linearGradient id="paint15_linear_3824_43" x1="12.2339" y1="2.15875e-08" x2="0.24912" y2="0.539069" gradientUnits="userSpaceOnUse">
<stop stop-color="#8E1AB4"/>
<stop offset="1" stop-color="#9B006D"/>
</linearGradient>
<clipPath id="clip0_3824_43">
<rect width="24" height="12" fill="white" transform="matrix(-1 0 0 1 24 0)"/>
</clipPath>
</defs>
</svg>
